<svg width="400" height="400" xmlns="http://www.w3.org/2000/svg">
  <defs>
    <linearGradient id="grad9" x1="0%" y1="100%" x2="0%" y2="0%">
      <stop offset="0%" style="stop-color:#0F2027;stop-opacity:1" />
      <stop offset="50%" style="stop-color:#203A43;stop-opacity:1" />
      <stop offset="100%" style="stop-color:#2C5364;stop-opacity:1" />
    </linearGradient>
  </defs>
  <rect width="400" height="400" fill="url(#grad9)"/>
  <!-- Buildings -->
  <rect x="50" y="200" width="60" height="200" fill="#1a1a2e" opacity="0.8"/>
  <rect x="130" y="150" width="70" height="250" fill="#16213e" opacity="0.8"/>
  <rect x="220" y="180" width="50" height="220" fill="#0f3460" opacity="0.8"/>
  <rect x="290" y="120" width="80" height="280" fill="#1a1a2e" opacity="0.8"/>
  <!-- Windows -->
  <rect x="60" y="220" width="10" height="15" fill="#00D9FF" opacity="0.9"/>
  <rect x="75" y="220" width="10" height="15" fill="#00D9FF" opacity="0.9"/>
  <rect x="60" y="250" width="10" height="15" fill="#FF1493" opacity="0.9"/>
  <rect x="75" y="250" width="10" height="15" fill="#00D9FF" opacity="0.9"/>
  <rect x="140" y="170" width="12" height="18" fill="#7B68EE" opacity="0.9"/>
  <rect x="157" y="170" width="12" height="18" fill="#00D9FF" opacity="0.9"/>
  <rect x="140" y="200" width="12" height="18" fill="#FF1493" opacity="0.9"/>
  <rect x="300" y="140" width="15" height="20" fill="#00D9FF" opacity="0.9"/>
  <rect x="320" y="140" width="15" height="20" fill="#7B68EE" opacity="0.9"/>
  <text x="200" y="370" font-family="Arial, sans-serif" font-size="26" fill="#00D9FF" text-anchor="middle" font-weight="bold">CYBERPUNK</text>
</svg>

